<svg width="30" height="53" viewBox="0 0 30 53" fill="none" xmlns="http://www.w3.org/2000/svg">
<path d="M22.4003 17.7325C20.6716 16.0037 17.6272 14.8013 14.8292 14.726M14.8292 14.726C11.5002 14.6364 8.51991 16.1425 8.51991 20.2562C8.51991 27.8273 22.4003 24.0417 22.4003 31.6129C22.4003 35.9309 18.7061 37.7864 14.8292 37.6471M14.8292 14.726V10.1613M7.25806 34.1366C8.88454 36.3052 11.9088 37.5421 14.8292 37.6471M14.8292 37.6471V42.9696" stroke="black" stroke-width="4" stroke-linecap="round" stroke-linejoin="round"/>
<mask id="path-2-inside-1_5_260" fill="white">
<path d="M0 0H30V52.2581H0V0Z"/>
</mask>
<path d="M0 0V-5H-3V0H0ZM30 0H33V-5H30V0ZM30 52.2581V57.2581H33V52.2581H30ZM0 52.2581H-3V57.2581H0V52.2581ZM0 5H30V-5H0V5ZM27 0V52.2581H33V0H27ZM30 47.2581H0V57.2581H30V47.2581ZM3 52.2581V0H-3V52.2581H3Z" fill="black" mask="url(#path-2-inside-1_5_260)"/>
</svg>
